<?xml version="1.0" encoding="UTF-8" standalone="no"?>
<!-- Generator: Adobe Illustrator 19.1.0, SVG Export Plug-In . SVG Version: 6.00 Build 0)  -->

<svg
   version="1.0"
   id="Capa_1"
   x="0px"
   y="0px"
   viewBox="0 0 200 200"
   xml:space="preserve"
   sodipodi:docname="dog200.svg"
   width="200"
   height="200"
   inkscape:version="1.1 (c68e22c387, 2021-05-23)"
   xmlns:inkscape="http://www.inkscape.org/namespaces/inkscape"
   xmlns:sodipodi="http://sodipodi.sourceforge.net/DTD/sodipodi-0.dtd"
   xmlns="http://www.w3.org/2000/svg"
   xmlns:svg="http://www.w3.org/2000/svg"><defs
   id="defs203">
	
	

		
			<radialGradient
   id="SVGID_1_"
   cx="274.38541"
   cy="254.43381"
   r="269.44989"
   gradientTransform="matrix(0.9916,0,0,0.9927,4.3928,3.636)"
   gradientUnits="userSpaceOnUse">
			<stop
   offset="0"
   style="stop-color:#FFFFFF"
   id="stop4" />
			<stop
   offset="0.4256"
   style="stop-color:#F6F6F6"
   id="stop6" />
			<stop
   offset="1"
   style="stop-color:#E3E3E3"
   id="stop8" />
		</radialGradient>
		
		
		
		
	</defs><sodipodi:namedview
   id="namedview201"
   pagecolor="#ffffff"
   bordercolor="#666666"
   borderopacity="1.0"
   inkscape:pageshadow="2"
   inkscape:pageopacity="0.0"
   inkscape:pagecheckerboard="0"
   showgrid="false"
   inkscape:zoom="1"
   inkscape:cx="49.5"
   inkscape:cy="96.5"
   inkscape:window-width="1366"
   inkscape:window-height="715"
   inkscape:window-x="1272"
   inkscape:window-y="253"
   inkscape:window-maximized="1"
   inkscape:current-layer="Capa_1"
   fit-margin-top="0"
   fit-margin-left="0"
   fit-margin-right="0"
   fit-margin-bottom="0" />
<style
   type="text/css"
   id="style2">
	.st0{fill:url(#SVGID_1_);}
	.st1{fill:#545456;}
	.st2{fill:url(#SVGID_2_);}
	.st3{fill:#423F42;}
	.st4{fill:#0C050D;}
	.st5{fill:#AE5E38;}
	.st6{fill:#FFFFFF;}
	.st7{fill:#84726C;}
	.st8{fill:#2C292D;}
	.st9{fill:none;stroke:#464B42;stroke-width:0.9095;}
</style>
<g
   id="g157"
   transform="matrix(0.73099415,0,0,0.72992699,-101.16959,-68.102188)">
			
				<linearGradient
   id="SVGID_2_"
   gradientUnits="userSpaceOnUse"
   x1="230.87061"
   y1="116.2306"
   x2="232.5582"
   y2="367.63101"
   gradientTransform="matrix(-1,0,0,1,506.8272,0)">
				<stop
   offset="0"
   style="stop-color:#F47B20"
   id="stop66" />
				<stop
   offset="1"
   style="stop-color:#F9B624"
   id="stop68" />
			</linearGradient>
			<path
   class="st2"
   d="m 138.4,230.1 c 0,-75.6 61.3,-136.8 136.8,-136.8 75.6,0 136.8,61.3 136.8,136.8 0,75.6 -61.3,136.8 -136.8,136.8 -75.6,0 -136.8,-61.3 -136.8,-136.8 z"
   id="path71"
   style="fill:url(#SVGID_2_)" />
			<path
   class="st3"
   d="m 185,334.5 c 4.9,-6.1 14.2,-43.9 11.8,-56.6 -4.9,-7.8 -7.8,-12.3 -10.2,-19.2 -2.5,-6.9 -8.6,-12.7 -15.9,-15.9 -7.4,-3.3 -18,-22.5 -18,-22.5 0,0 -11,-5.7 0.4,-20.8 11.4,-15.1 16.3,-20.8 18.4,-24.1 2,-3.3 5.7,-6.5 11.8,-10.2 6.1,-3.7 10.6,-6.9 13.5,-10.6 2.9,-3.7 9,-8.6 13.5,-9.8 4.5,-1.2 11,-1.6 17.2,-5.3 6.1,-3.7 24.5,-15.9 53.9,-14.7 29.4,1.2 44.1,0.4 49.8,6.5 5.7,6.1 13.5,18.8 15.5,26.5 2,7.8 9,17.6 11.8,24.1 2.9,6.5 6.5,30.6 2.9,41.7 5.9,11.1 15.5,18 17.2,21.6 1.6,3.7 6.5,7.4 3.7,13.1 -2.9,5.7 -4.1,9 -3.7,12.7 0.4,3.7 2.6,3.2 -3.2,15.4 -3,6.3 -12.4,14.4 -17.3,8.3 -5.3,4.5 -5.3,4.5 -5.3,4.5 0,0 0,7.8 -2.9,14.3 -2.9,6.5 0.8,13.9 3.7,24.1"
   id="path73" />
			<g
   id="g81">
				<path
   class="st4"
   d="m 264.5,201.2 c 0,0 5,8.7 13.5,6.9 8.4,-1.8 11.6,-6.9 11.6,-6.9 0,0 2.6,-0.3 4.2,2.1 1.6,2.4 2.4,4.2 2.4,4.2 0,0 -1.6,-6.9 -4.8,-8.7 -1.8,-7.4 -3.4,-13.2 -10.3,-13.2 -6.9,0 -13.5,1.8 -15.8,4.8 -2.4,2.9 -2.1,4.5 -3.2,6.1 -1.1,1.6 -4.2,3.4 -4,5 0.3,1.6 2.6,0.3 2.9,-0.5 0.3,-0.9 3.5,0.2 3.5,0.2 z"
   id="path75" />
				<path
   class="st5"
   d="m 270.8,193.5 c 0,0 -3.3,0.9 -1.2,5.9 2.1,5 9.4,3.6 9.4,3.6 0,0 9.5,-3.7 4.5,-10.8 -0.5,4.5 -1.3,6.1 -5.8,6.6 -4.5,0.5 -6.4,-1.9 -6.9,-5.3 z"
   id="path77" />
				<polygon
   class="st6"
   points="280.8,192.7 277.3,193.3 278.1,194.8 280.8,194.6 "
   id="polygon79" />
			</g>
			<path
   class="st4"
   d="m 323.2,168.5 c 0,0 4.1,12.9 6.8,17.8 2.7,5 3.7,5.8 5.2,9.3 1.5,3.5 2.3,6.6 4.4,8.9 2.1,2.3 3.7,2.7 3.7,2.7 0,0 -1.5,-6.8 -1.9,-10 -0.4,-3.1 0.2,-5.2 0.6,-4.1 0.4,1 1.9,0 2.1,-0.8 0.2,-0.8 2.1,2.7 2.7,2.1 0.6,-0.6 0.2,-3.3 0.6,-4.8 0.4,-1.5 1.7,-2.5 2.7,-1.9 1,0.6 1.5,4.6 1.5,4.6 0,0 0,-5.6 -0.6,-9.1 -0.6,-3.5 -1.9,-3.7 -3.7,-4.8 -1.9,-1 -7,-8.5 -7.9,-10.4 -0.8,-1.9 -1,-5.6 -2.7,-4.6 -1.7,1 -2.9,2.5 -2.9,2.5 -1.2,-0.6 -2.3,-0.6 -2.3,-0.6 l -0.6,1.9 c -1,-1.5 -2.7,-1.5 -2.7,-0.8 0,0.6 0.6,2.3 -0.2,1.9 -0.8,-0.4 -1.2,-1.5 -1.9,-1 -0.6,0.4 -2.3,-2.1 -2.3,-3.7 0,-1.7 -1.7,1.6 -0.6,4.9 z"
   id="path83" />
			<path
   class="st4"
   d="m 306.4,191.5 c 0,0 3.3,-9 3.7,-13.2 0.4,-4.1 -1,-8.7 -2.7,-10.2 -1.7,-1.5 -1.5,-3.7 -0.4,-3 1,0.7 2.5,1.5 2.7,2.4 0.2,0.9 2.5,3.1 2.5,3.1 0,0 3.7,0.6 2.9,0.3 -0.8,-0.3 -0.6,-1 -1.9,-2.5 -1.2,-1.5 -2.5,-1.6 -3.3,-3.4 -0.8,-1.8 -2.7,-5 -5.8,-6.5 -3.1,-1.5 -4.1,-2.8 -4.6,-3.7 -0.4,-0.9 -3.3,-1.5 -4.1,-2.1 -0.8,-0.6 -1.2,-1.5 -2.5,-1.2 -1.2,0.3 -3.3,0.3 -4.1,0.4 -0.8,0.1 -6.4,-0.1 -4.8,0 1.7,0.1 2.3,1.2 1.5,1.2 -0.8,0 -3.7,0.6 -2.9,0.6 0.8,0 4.6,0.6 2.3,0.7 -2.3,0.1 -2.9,0.9 -2.9,0.9 l 1.9,1.2 c 0,0 -2.7,0.1 -1.7,0.3 1,0.1 2.5,0.3 2.9,0.7 0.4,0.4 3.3,1.6 3.3,1.6 0,0 2.3,1.5 -1,1.5 -3.3,0 -4.6,0.9 -4.6,0.9 l -1,1.6 -2.1,1.2 0.6,1.5 -0.6,1.5 c -0.2,0.7 1.9,1.5 -0.6,2.1 -2.5,0.6 -3.5,0.9 -4.1,1.3 -0.6,0.4 -1,0.9 -2.1,1.6 -1,0.7 2.7,0.4 1.9,0.7 -0.8,0.3 -2.5,1.8 -2.5,1.8 l 7.7,-0.6 4.1,-0.2 c 0,0 3.3,0.3 3.7,1.3 0.4,1 -0.2,3 -0.2,3 l 1.4,1.5 3.1,-0.9 c 0.2,1 3.1,1.3 2.5,1.6 -0.6,0.3 2.5,0.6 1.2,1 -1.2,0.4 1.9,1.3 1,1.5 -0.9,0.2 3.5,1.5 1.7,1.6 -1.9,0.1 -1.9,1.5 -1.9,1.5 0,0 4.6,1.9 3.9,2.1 -0.6,0.1 -0.2,1.2 -0.2,1.2 l 3.5,0.6 1.7,1.3"
   id="path85" />
			<path
   class="st4"
   d="m 353.9,340.8 c -1.7,-3.9 -4.8,-16.8 -5.4,-19.2 -0.6,-2.5 0.8,-12.2 1.4,-14.9 0.6,-2.7 0.2,-6 1.9,-5.8 1.7,0.2 -3.9,0 -3.3,-0.8 0.6,-0.8 -3.7,0.8 -3.7,0.8 0,0 0,0 -1.9,1.2 -0.7,0.5 -2.7,0.8 -2.7,0.8 0,0 -1.9,0.8 -3.3,1.5 -1.5,0.6 -2.7,2.1 -2.1,1.7 0,0 -3.3,0.8 -4.4,1.9 -1,1 -2.9,0.4 -3.5,0.2 -0.6,-0.2 -12.9,-1 -14.3,-0.4 -1.4,0.6 -3.1,0 -3.9,-1.2 0,0 -4.6,-2.7 -6,-2.7 -1.5,0 -9.1,-2.7 -11.6,-3.5 -2.5,-0.8 -6,-4.4 -13.7,-10.4 -7.7,-6 -15.1,-30.7 -13.6,-31.3 1.5,-0.6 7,22.6 7.2,23.4 0.2,0.8 5,3.7 6.4,5.2 1.5,1.5 10.2,7 12.9,7.5 2.7,0.4 0.6,1.5 2.3,3.3 1.7,1.9 2.5,1 3.7,1.2 1.2,0.2 2.5,1.7 2.5,1.7 0,0 3.3,1.7 5.4,0.8 2.1,-0.8 0,0 4.6,2.5 4.6,2.5 3.1,0.6 4.8,-0.2 1.7,-0.8 0,0 1,-1.4 1,-1.5 3.5,-1 7.9,-3.3 4.4,-2.3 -2.9,-2.9 -1.5,-3.3 1.5,-0.4 0.8,-1 7.3,-3.3 6.4,-2.3 0.6,-0.8 -0.6,-1.9 -1.2,-1 -4.4,-1 -5.2,-1.2 -0.8,-0.2 -10.2,-4.6 -11.8,-5 -1.7,-0.4 -2.5,-1.5 -1,-2.1 1.5,-0.6 -3.3,-1.5 -1,-2.3 2.3,-0.8 0.6,-0.8 2.5,-1.9 1.9,-1 -1.2,-1.7 -0.8,-3.5 0.4,-1.9 -1.5,-3.9 1,-5 2.5,-1 -2.5,-1.5 -1.2,-2.3 1.2,-0.8 2.7,-0.8 4.8,-1.2 2.1,-0.4 4.4,0.4 7.7,-1.5 3.3,-1.9 2.5,-7.7 2.9,-8.3 0.4,-0.6 -0.4,-2.1 -0.6,-3.7 -0.2,-1.7 -1.2,-1.4 -1.7,-2.9 -0.4,-1.4 -2.3,-2.3 -0.8,-3.7 1.5,-1.5 3.7,-5.4 4.4,-6 0.6,-0.6 2.5,-2.5 6.6,-5.6 4.1,-3.1 -3.1,-4.4 -2.9,-3.1 0.2,1.2 -7.7,1.7 -10.8,1.2 -3.1,-0.4 -3.1,-4.6 -3.1,-4.6 0,0 -4.6,-5.8 -2.9,-7.3 1.7,-1.5 0.4,-2.7 0.4,-2.7 0,0 -2.3,-2.5 0.4,-4.1 2.7,-1.7 -2.7,-4.8 -4.4,-4.6 -1.7,0.2 -2.1,1 -2.5,2.7 -0.4,1.7 -3.1,2.1 -2.7,2.7 0.4,0.6 1.5,1 2.1,1.9 0.6,0.8 -6.2,3.1 -5.8,4.1 0.4,1 -0.6,2.7 -0.2,3.3 0.4,0.6 -2.9,1 -2.9,1.9 0,0.9 -1.9,2.5 -1.9,2.5 0,0 -3.5,2.3 -4.6,2.5 -1,0.2 -1.9,-1 -1.9,-1 l 1.7,-3.9 c 0,0 -1.4,-1 -1.2,-1.7 0.2,-0.6 -2.3,-2.5 -2.7,-3.1 -0.4,-0.6 -2.3,-2.5 -1.7,-3.3 0.6,-0.8 -2.9,-1.2 -2.9,-1.2 0,0 -3.9,-0.6 -3.3,-1 0.6,-0.4 -1.7,-1.9 -5.6,-1.9 -3.9,0 -3.3,-3.1 -3.3,-3.1 0,0 -0.8,0.4 -2.3,0.4 -1.5,0 -0.8,-2.1 -2.1,-2.5 -1.2,-0.4 -1.7,0.4 -2.3,0.4 -0.6,0 -0.2,2.3 -0.8,1.7 -0.6,-0.6 -6.6,-3.5 -6.6,-3.5 0,0 0,0 1.7,-0.4 1.7,-0.4 0.4,-3.7 1.9,-5.2 1.4,-1.5 -0.4,-6.2 -0.4,-6.2 l 2.1,-3.3 c 0,0 -2.7,0.2 -0.8,-1.5 1.9,-1.7 -1.7,-1.2 -1.7,-1.2 0,0 -4.4,-0.4 -3.7,-1 0.6,-0.6 -3.1,1.5 -3.7,1.7 -0.6,0.2 -0.2,-2.9 4.1,-5.6 4.4,-2.7 11,-8.3 11.4,-9.5 0,0 0.6,-0.8 3.3,-2.5 2.7,-1.7 -6.6,0.2 -6.2,-0.4 0.4,-0.6 1.2,-1.5 2.5,-2.3 1.2,-0.8 -3.7,-1.2 -3.7,-1.2 0,0 -1.9,0 -0.8,-2.1 1,-2.1 -1.7,-2.9 -0.4,-3.7 1.2,-0.8 -3.1,-0.4 -3.7,-0.4 -0.6,0 -5.2,-2.5 -4.1,-2.9 1,-0.4 -2.1,0.2 -8.1,2.3 -6,2.1 -6,3.3 -4.1,3.9 1.9,0.6 -3.9,2.9 -3.7,3.5 0.2,0.6 -1.7,1.9 -1.7,1.9 0,0 -2.9,1 -3.7,2.5 -0.8,1.5 -2.5,3.3 -2.5,5.6 0,2.3 -1.7,1 -2.3,0.8 -0.6,-0.2 3.7,-11.2 5.4,-12.2 1.7,-1 2.1,-4.4 3.1,-5.2 1,-0.8 0.2,-3.1 1.4,-3.7 1.2,-0.6 1.5,-1 2.5,-1.5 1,-0.4 0,-1.7 0.4,-2.3 0.4,-0.6 1.9,-2.3 3.3,-4.4 0,0 2.5,-1.5 1.5,-2.3 l 4.4,-3.5 c 0,0 -2.1,-0.6 -0.2,-1 1.9,-0.4 -2.3,-0.8 -3.7,-0.2 -1.4,0.6 -3.7,0 -4.4,-0.8 -0.6,-0.8 0.2,-1.4 -0.8,-2.1 -1,-0.6 -3.3,-1.5 -7,0 -3.7,1.5 -5.6,2.1 -4.8,2.5 0.8,0.4 -2.9,2.3 -2.9,3.7 0,1.5 -3.7,1.5 -3.7,1.5 0,0 -1.9,1 -2.5,1 -0.6,0 -1.9,0.2 -2.7,-0.6 -0.8,-0.8 -2.5,1.5 -2.5,1.5 0,0 -8.1,2.1 -4.6,1.9 3.5,-0.2 -1.9,1 1.7,0.6 3.5,-0.4 -0.6,2.3 -0.6,2.3 0,0 -4.4,1.9 -3.3,2.5 1,0.6 0,0 3.1,0 3.1,0 1.2,0 2.5,0 1.2,0 -6.2,2.3 -6,3.3 0.2,1.1 1.5,0 6.2,0.6 0,0 -5.8,3.3 -4.8,3.5 1,0.2 0,0 2.7,0 2.7,0 -0.4,1.7 -0.4,1.7 0,0 -3.3,2.1 -1.7,1.5 1.7,-0.6 -0.8,1.5 -0.8,1.5 0,0 3.1,-0.2 4.1,-0.2 1,0 -4.4,2.3 -3.7,2.9 0.7,0.7 5.4,-0.6 6,-0.6 0.6,0 -3.9,1.9 -3.3,3.3 0.7,1.7 2.9,0.6 3.9,0.4 1,-0.2 2.5,0.8 1.4,2.1 -1,1.2 -2.7,4.1 -1.7,5.8 1,1.7 -2.1,1.5 0.4,1.5 2.5,0 -1.7,4.6 -1.7,4.6 0,0 0,2.9 -0.2,4.1 -0.2,1.2 0,1.7 0,1.7 0,0 1.7,-1.7 2.7,-0.2 1,1.5 0.8,2.7 1.7,5 0.8,2.3 0,3.9 0.2,6.2 0.2,2.3 0.8,7.9 0.8,7.9 0,0 0,-0.8 0.4,-1.9 0.4,-1 -0.6,-3.7 0.4,-7.5 1,-3.7 1,0 1.2,3.1 0.2,3.1 1,6.6 1.5,7.9 0.4,1.2 -0.6,2.5 -0.8,3.9 -0.2,1.5 2.7,4.8 2.7,4.8 0,0 -0.2,-3.3 0,-2.7 0.2,0.6 2.7,6.8 3.1,9.3 0.4,2.5 2.1,6.6 2.1,6.6 l -1.9,-1 c 0,0 -1.9,-1.7 -1.5,-2.3 0.4,-0.6 -1.7,-1.2 -1.7,-1.2 0,0 -0.2,-1.7 -1,-2.7 -0.8,-1 -2.3,-1.7 -2.3,-1.7 0,0 -1.9,-4.1 -3.1,-7.3 -1.2,-3.1 0,0 -0.4,3.5 -0.4,3.5 0,5 0.4,5.6 0.4,0.6 0.8,3.3 2.5,4.1 1.7,0.8 -0.4,1.5 0.6,2.5 1,1 2.7,2.7 3.7,3.5 1,0.8 1.2,2.1 1.9,2.3 0.6,0.2 1.9,2.7 0.2,5.2 -1.7,2.5 -2.3,5.8 -1.7,6.2 0.6,0.4 -1,2.9 0.8,4.4 1.9,1.5 -1.7,2.3 -3.1,3.7 -1.5,1.5 -1.5,1.5 -1,2.3 0.4,0.8 -2.7,2.1 -2.7,2.1 0,0 -1.5,2.3 -1.2,3.5 0.2,1.2 -5,1.9 -5.6,1.5 -0.6,-0.4 -2.3,1.2 -2.3,1.2 0,0 -2.9,0.8 -4.8,0.2 0,0 -2.1,1 -2.1,0.2 0,-0.8 -1.9,-1 -2.7,-0.8 l -4.8,-2.5 c 0,0 -1,-1.9 -1.9,-1.5 0,0 -3.3,-1.9 -3.5,-2.5 -0.2,-0.6 -1.7,-1.7 -1.7,-1.7 0,0.6 0.4,3.3 1.2,3.1 0.8,-0.2 6.6,9.1 7.9,9.9 1.2,0.8 2.3,0.8 4.6,1 0.6,0.1 3.7,-0.2 4.1,0.4 0,0 -1.9,1 -2.7,1.2 -0.8,0.2 -2.5,0.2 -2.5,0.2 0,0 -4.8,-1.5 -4.4,-0.2 0.4,1.2 0,8.9 -3.7,20.5 l -8.3,34.3 c 0,0 24.4,32.1 95.3,32.1 36.6,0 73.6,-25.3 73.6,-25.3 z"
   id="path87" />
			<path
   class="st4"
   d="m 178.7,176.4 c -0.8,0.4 -2.7,2.9 -3.9,4.6 -1.2,1.7 4.8,0.4 2.3,2.7 -2.5,2.3 -1.5,4.8 -1.7,6 -0.2,1.2 2.7,1.5 1.7,2.7 -1,1.2 3.5,4.6 5,5 1.4,0.4 1.7,0.4 1.7,1.9 0,1.5 2.9,0.2 2.3,1.5 -0.6,1.2 3.7,0.6 1.9,2.3 -1.9,1.7 2.3,0.4 2.1,-0.6 -0.2,-1 0.2,-2.5 -0.4,-3.5 -0.6,-1 -0.2,-5 -1.9,-5.2 -1.7,-0.2 4.6,-2.9 0.6,-2.1 -3.9,0.8 -3.3,-0.4 -3.7,-1 -0.4,-0.6 -0.8,-1.7 0,-2.5 0.8,-0.8 5.8,-10.6 2.1,-8.3 -3.7,2.3 -1.7,1.7 -3.5,1 -1.9,-0.6 0.4,-1.7 -0.4,-2.5 -1.1,-1 -4.2,-2 -4.2,-2 z"
   id="path89" />
			<path
   class="st4"
   d="m 171.2,196.3 c -1,1 -1.7,5.2 -1.7,5.8 0,0.6 3.9,-1.5 1.2,2.9 -2.7,4.4 -1,5.8 -1,7.9 0,2.1 1.9,2.3 1,3.5 -0.8,1.2 1.2,1.9 0.6,3.1 -0.6,1.2 4.4,7.9 3.1,9.1 -1.2,1.2 3.1,0 2.5,2.9 -0.6,2.9 2.5,4.4 2.9,5.4 0.4,1 2.5,2.1 3.7,2.9 1.2,0.8 3.5,-0.6 3.7,-1.2 0.2,-0.6 -0.2,-5.2 -0.2,-5.2 0,0 2.3,-4.6 0.4,-4.8 -1.9,-0.2 3.7,-4.1 -0.2,-2.7 -3.9,1.5 -1.7,0.2 -3.7,0 -2.1,-0.2 -5.4,-7.7 -5.4,-7.7 -1,-1.9 1.9,-3.7 0.4,-5.4 -1.5,-1.7 0.2,-7 -0.4,-7 -0.6,0 -0.2,-3.5 -0.2,-3.5 l -3.5,-2.1 c 0,0 3.7,-1.7 2.3,-1.5 -1.4,0.2 -3.1,0.8 -3.1,0.8 z"
   id="path91" />
			<path
   class="st4"
   d="m 158.4,214.3 c -0.4,1.2 1.7,4.1 1.7,6 0,1.9 6,1 4.6,4.1 -1.5,3.1 8.9,14.5 8.9,14.5 0,0 -0.2,-1 0.8,0.2 1,1.2 0.8,2.7 2.7,3.7 1.9,1 1,0.4 1.9,1 0.8,0.6 1.7,-1.2 2.3,0.6 0.6,1.9 0.2,1.9 0.6,2.9 2.3,4.8 3.5,5.6 2.3,4.8 -1.2,-0.8 -7.7,-8.1 -11.4,-9.3 -3.7,-1.2 -11.6,-10.2 -13.9,-12.6 -2.3,-2.5 -4.6,-10.4 -5.8,-11 -1.2,-0.6 -2.9,-2.1 -3.7,-3.7 -0.8,-1.7 -0.2,-3.9 -0.6,-6.8 -0.4,-2.9 0.2,-7.3 1.7,-8.7 1.4,-1.5 4.1,-2.7 5,-3.1 0.8,-0.4 -0.2,1.5 1.7,0.6 1.9,-0.8 3.9,-3.3 4.6,-3.7 0.6,-0.4 5.2,-1.5 3.1,-0.2 -2.1,1.2 -4.1,4.6 -4.6,5.6 -0.4,1 3.1,0.6 2.3,1.5 -0.8,0.8 0.6,2.5 -0.2,3.3 -0.8,0.8 0.6,1.9 0.2,2.9 -0.4,1 1.7,0.4 0,2.3 -1.7,1.9 0.6,1.7 0.2,2.5 -0.7,0.8 -4.4,2.6 -4.4,2.6 z"
   id="path93" />
			<path
   class="st4"
   d="m 240.5,135.4 c 3.7,-0.6 12.4,-3.1 13.3,-3.5 0.8,-0.4 6,-1.9 6.8,-0.8 0.8,1 3.9,1.7 4.1,2.7 0.2,1 9.3,0.6 9.3,0 0,-0.6 -0.2,-2.5 1,-1.7 1.2,0.8 3.3,1 2.9,1.9 -0.4,0.8 2.3,-1 3.9,1.5 1.7,2.5 0.4,0.8 2.3,0.4 1.9,-0.4 -0.6,-2.1 3.5,-0.4 4.1,1.7 6,1.2 6.2,0 0.2,-1.2 1.2,0 2.1,0.4 0.8,0.4 3.1,1.9 2.9,1.2 -0.2,-0.6 2.7,1.7 3.3,0 0.6,-1.7 -0.6,-3.5 0.6,-1.7 1.2,1.9 1.7,3.1 1.7,3.1 l 2.1,-2.3 c 0,0 2.7,0 2.3,1.7 -0.4,1.7 0.8,2.3 0.8,2.3 0,0 3.9,-2.9 3.3,-2.1 -0.6,0.8 0.6,3.9 1.2,3.5 0.6,-0.4 2.5,-1.9 2.5,-0.6 0,1.2 2.7,6.2 4.1,4.8 1.5,-1.5 5.8,1.5 5.8,2.7 0,1.2 3.9,0.4 2.7,2.5 -1.2,2.1 -0.2,3.5 -0.2,3.5 0,0 2.3,1.7 1.5,2.5 -0.8,0.8 -2.5,2.1 0.4,1.9 2.9,-0.2 6,-0.2 5.6,0.4 -0.4,0.6 3.7,-1.2 2.7,-1.5 -1,-0.2 -1.7,-1.9 -3.3,-2.9 -1.7,-1 0.2,-1.8 -0.6,-2.5 -2.3,-1.9 0,-1 -1.7,-3.3 -1.7,-2.3 -5.4,-6 -6.8,-6.4 -1.5,-0.4 -2.5,-1.9 -3.1,-2.1 -0.6,-0.2 -1.2,-1.2 -1.9,-1.7 -0.6,-0.4 -0.2,-2.3 -1.9,-2.9 -1.7,-0.6 -5.8,-2.1 -6.6,-2.1 -0.8,0 -6.5,-2.1 -7.5,-2.5 -3.9,-1.7 -5.2,-1.2 -6.4,-1.5 -1.2,-0.2 -2.1,-1.2 -3.3,-1.7 -1.2,-0.4 -1.2,-1 -3.3,-0.8 -2.1,0.2 -1.7,0.8 -3.5,-0.2 -1.9,-1 -0.6,-0.8 -4.4,-1.2 -3.7,-0.4 -27.6,1.5 -28.8,1.7 -1.2,0.2 -1.2,0.6 -4.4,1.2 -3.1,0.6 -8.3,2.3 -8.3,2.3 0,0 -1.2,0.2 -2.3,0.8 -1,0.6 -2.7,2.3 -3.7,2.9 -1,0.6 -1.6,0.4 -2.7,1.2 -2.1,1.5 -4.4,1.9 -4.4,1.9 z"
   id="path95" />
			<path
   class="st4"
   d="m 349.1,246.3 c 0,0 -3.9,3.1 -2.1,7.3 1.9,4.1 2.7,7.3 4.6,6.6 1.9,-0.6 4.6,-2.7 5.8,-3.5 1.2,-0.8 2.7,-1.9 3.9,-1.5 1.2,0.4 4.3,-0.4 6.2,-1.7 1.9,-1.2 5.4,-1.9 6.2,-1.2 0.8,0.6 2.7,0.8 2.7,0.8 0,0 0.8,-1.2 2.1,-1.2 1.2,0 2.3,3.1 2.3,3.1 0,0 -2.1,0 -3.5,1.2 -1.4,1.2 -2.1,2.5 -6.2,2.1 -4.1,-0.4 -7.9,-1 -11,0.4 -3.1,1.5 -5.8,2.5 -8.3,3.5 -2.5,1 -1.9,2.7 -4.1,2.7 -2.3,0 -0.2,1.5 -0.2,1.5 0,0 4.8,2.5 6.4,0.8 1.7,-1.7 2.9,-5.8 7.5,-6.4 4.6,-0.6 5.8,0.8 4.1,4.4 -1.7,3.5 -3.3,4.1 -5.2,3.9 -1.9,-0.2 -2.1,-0.4 -5.2,0.4 -3.1,0.8 -4.1,-0.2 -4.1,1.5 0,1.7 5,1 7.3,1.5 2.3,0.4 0.6,2.3 -1.2,2.3 -1.9,0 -6.4,-0.2 -6.4,-0.2 0,0 2.9,1.5 1.2,1.7 -1.7,0.2 -3.3,-1.9 -5.2,-2.1 -1.9,-0.2 -2.1,-0.2 -2.1,-1.2 0,-1 -0.4,4.1 -1,5 -0.6,0.8 -0.8,3.1 -1.9,2.5 -1,-0.6 -1,-1.5 -2.3,-1.2 -1.2,0.2 -6.4,0.8 -7.5,0.6 -1,-0.2 1.8,-1.9 1.2,-3.3 -1.5,-3.5 1.7,-6.4 1.7,-6.4 0,0 3.7,-2.5 3.5,-4.1 -0.2,-1.7 -1.7,-1.2 -3.3,-2.3 -1.7,-1 -1.2,-3.1 0,-3.5 1.2,-0.4 4.1,-2.1 2.7,-2.5 -1.4,-0.4 -4.6,-1.2 -4.6,-1.2 0,0 -1.9,-2.7 -1.2,-3.3 0.6,-0.6 1.7,-0.8 2.7,-1 1,-0.2 4.6,0.2 4.6,0.2 0,0 4.6,1 4.1,-0.2 -0.4,-1.2 0.6,-1.5 0,-3.1 -0.6,-2.1 2.9,-4.2 5.8,-2.9 z"
   id="path97" />
			<path
   class="st4"
   d="m 374.8,260.6 c 0,0 -2.1,3.7 -1.2,5.6 0.8,1.9 0.4,3.7 -0.8,4.6 -1.2,0.8 -3.1,1.5 -3.1,1.5 0,0 5,0 5.8,-2.7 0.8,-2.7 2.7,-3.1 2.9,-4.8 0.1,-1.7 -4,-2.8 -3.6,-4.2 z"
   id="path99" />
			<path
   class="st4"
   d="m 358.1,294.7 c 0,0 0.3,-0.1 0.8,-0.3 1.1,-0.4 2.9,-1.3 3.7,-1.8 1,-0.8 3.9,-0.8 3.7,-0.2 -0.2,0.6 0.8,0.6 0,1.9 -0.8,1.2 0.4,1.7 0.4,1.7 -0.2,-1.5 -0.2,0.6 -0.2,0.6 0,0 -4,0.8 -8.4,-1.9 z"
   id="path101" />
			<path
   class="st4"
   d="m 367.7,273.4 c -1.5,1 -4.6,2.9 -5.6,3.5 -1,0.6 -0.7,-0.9 -1.7,-0.4 -1.7,0.8 -3.9,2.3 -3.9,2.3 l -3.1,-1.2 c 0,0 0.2,1 -1.4,1.7 -1.7,0.6 -2.5,2.7 -5,3.5 -2.5,0.8 -5.8,-0.4 -6.8,1.5 -1,1.9 -2.1,2.5 -2.7,2.5 -0.6,0 -2.5,-1 -2.5,-1 -1.4,1 -0.2,1.7 4.1,1.7 4.4,0 5.4,-1 5.4,-1 0,0 1.9,-0.6 2.5,-0.8 0.6,-0.2 1.7,-0.2 1.7,-0.2 0,0 0.4,-1.7 1.7,-0.8 1.2,0.8 1.7,2.3 3.1,0.4 1.5,-1.9 4.1,-3.4 4.1,-2.7 0,1.9 1.2,1.9 1.9,1.5 0.6,-0.4 3.5,-2.1 3.5,-2.1 1,-0.2 2.5,-1.2 2.7,-0.4 0.2,0.8 4.8,-1 4.8,-1 h 1.7 c 1.5,-1.2 -1,-3.3 -1,-3.3 0,0 -1.5,-0.8 -0.6,-1.7 0.8,-0.8 1,-1.7 1,-1.7 h -3.9 z"
   id="path103" />
			<path
   class="st4"
   d="m 370.8,261 c 0,0 -2.5,6.2 -3.3,6.6 -0.8,0.4 -0.8,2.1 -0.8,2.1 l 0.6,1.2 c 0,0 1.2,-0.4 1.7,-2.7 0.4,-2.2 1.8,-7.2 1.8,-7.2 z"
   id="path105" />
			<path
   class="st4"
   d="m 355.5,218.5 -1.4,-1.7 c 0,0 -1.7,-1.7 -2.3,-1.9 -0.6,-0.2 -1.7,-0.6 -1,-1.4 0.6,-0.8 -0.2,-2.1 -0.8,-1.9 -0.6,0.2 3.3,-2.3 3.3,-2.3 0,0 0.8,-0.6 -0.2,-1.7 -1,-1 -0.2,-1.9 -0.4,-2.5 -0.2,-0.6 -2.3,-4.6 -1.5,-5 0.8,-0.4 2.3,-2.7 2.3,-2.7 0,0 -0.6,-1.5 -0.4,-2.1 0.2,-0.6 2.7,-1.7 1.4,-2.3 -1.2,-0.6 0,-4.4 0.2,-5.2 0.2,-0.8 -0.2,-5.2 -0.4,-6 -0.2,-0.8 -1.4,-2.5 -1.4,-2.5 0,0 2.7,-0.6 2.3,-2.1 -0.4,-1.5 -0.6,-3.5 -0.6,-3.5 0,0 6.4,12.6 6,25.1 -0.4,12.4 -0.6,11.2 -1.2,11.6 -1.5,1 -1.5,1.2 -1.5,2.3 0,1 1,1 0.4,2.1 -0.7,1.2 -2.8,3.7 -2.8,3.7 z"
   id="path107" />
			<path
   class="st4"
   d="m 357.4,219.9 c 0,0 5.2,-8.1 5.4,-14.7 0.6,10.8 0.6,16.8 -1.4,18.4 -2.8,-2.4 -4,-3.9 -4,-3.7 z"
   id="path109" />
			<path
   class="st7"
   d="m 369.6,251 c -0.6,0.3 -1,0.8 -4.1,2.1 -3.1,1.2 -3.7,0.6 -5.6,0.8 -1.9,0.2 -0.8,3.1 -2.5,2.7 -1.7,-0.4 -5,1 -5.6,0.8 -0.6,-0.2 -1.9,-2.7 -1.7,-4.1 0.2,-1.5 -0.8,-4.8 3.5,-5.6 4.4,-0.8 8.3,-0.8 9.3,0 1.1,0.8 12.7,0.4 6.7,3.3 z"
   id="path111" />
			<path
   class="st7"
   d="m 320.3,303.7 c 2.3,-0.8 6.8,-4.4 8.9,-5.2 2.1,-0.8 6.4,-2.5 4.6,-1 -1.9,1.5 0.6,1 1.4,1 0.8,0 2.8,-1.8 3.3,-1.5 1.5,0.8 2.9,-0.2 3.9,-0.6 1,-0.4 3.7,1 5.4,-1.9 1.7,-2.9 3.5,-3.7 5.4,-4.8 1.9,-1 3.1,-1.9 3.7,-1.4 0.6,0.4 -2.9,2.7 0,1.9 2.9,-0.8 5,-0.8 7.1,-2.3 2.1,-1.5 6.2,-1.9 6.6,-1.2 0.4,0.6 3.4,3.5 2.7,2.9 -1.6,-1.4 -1,0.3 -5,2 -2.1,0.9 -1.9,-3.2 -1.5,1.2 0.2,2.2 3.3,-4.9 0.7,-0.5 -0.6,1 -0.6,-2.1 -1.4,-1.9 -0.8,0.2 -3.1,2.5 -3.5,2.1 -0.4,-0.4 -2.3,0 -2.3,0 0,0 -1.4,0.6 -2.3,1 -0.8,0.4 -1.5,1.2 -2.3,2.1 -0.8,0.8 -2.3,2.1 -3.1,2.5 -0.8,0.4 -2.7,1 -3.7,0.8 -1,-0.2 -2.1,-1 -2.9,0 -0.8,1 -4.1,3.1 -7.7,3.7 -3.5,0.6 -5,1.7 -6.4,2.3 -1.5,0.6 -1.7,2.1 -2.9,1.9 -1.2,-0.2 -2.1,0 -2.9,-0.2 -0.8,-0.2 -1.5,-1.2 -3.5,-0.6 -2.1,0.6 -4.1,0.8 -5,0.4 -0.9,-0.4 2.7,-2.7 2.7,-2.7 z"
   id="path113" />
			<path
   class="st8"
   d="m 255.8,278.6 c -1.7,-0.4 -4.4,-0.6 -7.7,0 -3.3,0.6 -9.5,3.1 -7.9,2.7 1.7,-0.4 14.3,-1 14.3,-1 l -12.6,2.1 c 0,0 8.3,-0.4 8.9,-0.2 0.6,0.2 2.7,-0.2 -3.3,0.8 -6,1 -8.5,1.9 -7.9,2.3 0.6,0.4 10.6,-1.2 11.8,-1.2 1.2,0 3.5,0.2 2.7,0.4 -0.8,0.2 -9.3,0.6 -9.7,1.2 -0.4,0.6 5.6,0.6 6.2,0.8 0.6,0.2 0.2,0.6 -2.9,0.6 -3.1,0 -5,1.2 -7.7,0.8 -2.7,-0.4 -6.2,-2.7 -7.5,-1 -1.2,1.7 -6.4,4.1 0.4,3.5 6.8,-0.6 18.5,-2.1 15.5,-1.5 -2.9,0.6 -11.2,3.5 -11.8,4.1 -0.6,0.6 11,-2.1 10.4,-2.1 -0.6,0 -1.2,0.4 -3.7,1.7 -2.5,1.2 11.8,-1.5 12,-1.9 0.2,-0.4 -5.4,1.5 -6.8,2.7 -1.4,1.2 12,-0.8 11,-0.4 -1,0.4 -11,3.9 -11,3.9 0,0 15.3,-2.7 12.2,-2.1 -3.1,0.6 -9.7,3.1 -7.3,2.7 2.5,-0.4 9.3,-0.6 9.3,-0.6 0,0 -4.6,2.7 -5,2.9 -0.4,0.2 8.3,-1.5 6,-0.6 -2.3,0.8 -4.4,2.3 -5,2.7 -0.6,0.4 6.4,0.4 4.6,0.8 -1.9,0.4 -3.7,2.3 -3.7,2.3 0,0 9.7,-0.8 4.8,0.6 -5,1.5 -3.3,2.5 -3.3,2.5 l -1.7,2.3 c 0,0 7.5,-1.5 4.1,0 -3.3,1.4 -2.5,3.3 -2.5,3.3 0,0 1.9,1 0.8,1.9 -1,0.8 7.5,-1.4 4.1,0 -3.3,1.5 2.3,3.7 0.2,5.2 -2.1,1.4 -6.8,5.4 -2.7,3.5 4.1,-1.9 5.4,-1.7 2.9,-0.2 -2.5,1.5 0,1.9 -0.6,2.1 -0.6,0.2 7.9,-5.2 4.8,-2.7 -3.1,2.5 -4.4,3.9 -3.9,4.4 0.4,0.4 7.5,-3.5 4.8,-1.7 -2.7,1.9 -3.9,4.8 -3.9,4.8 0,0 8.5,-5.2 6,-3.3 -2.5,1.9 -4.8,5 -4.8,5 0,0 8.5,-5.6 5.8,-3.3 -2.7,2.3 -3.5,4.1 -2.3,3.3 1.2,-0.8 6.8,-6.4 6.6,-7 -0.2,-0.6 -3.3,-1 -4.4,0.2 -1,1.2 2.5,-2.5 1.9,-2.5 -0.6,0 -4.1,0.6 -4.4,0.4 -0.2,-0.2 3.7,-3.7 1.9,-2.9 -1.9,0.8 3.1,-4.8 -0.6,-3.1 -3.7,1.7 -4.6,0.2 -5.4,0.4 -0.8,0.2 6.2,-5.2 5,-5.2 -1.2,0 -5.8,2.9 -5.8,2.9 0,0 6.2,-4.6 4.8,-3.9 -1.5,0.6 -4.6,1 -3.9,0.4 0.6,-0.6 9.9,-6 3.3,-3.3 -6.6,2.7 -0.4,-1 -0.4,-1 0,0 4.4,-2.5 1,-1.7 -3.3,0.8 -4.4,2.3 -3.3,0.8 1,-1.5 9.9,-3.7 3.7,-2.9 -6.2,0.8 -2.5,-5.4 -5.4,-4.1 -2.9,1.2 1.7,-1.9 1.7,-1.9 -2.5,-0.6 2.1,-3.7 -0.2,-3.3 -2.3,0.4 2.7,-1.9 -0.6,-1.5 -3.3,0.4 -1.9,-1 -3.5,-1 -1.7,0 9.5,-3.5 3.7,-2.3 0,0 -6.2,0.4 -7.7,0.6 -1.5,0.2 2.3,-2.1 2.3,-2.1 0,0 -1.9,-0.2 -4.1,0.2 -2.3,0.4 0.8,-1 0.8,-1 0,0 -5.2,0.8 -5,0.2 0.2,-0.6 7,-2.9 6.2,-3.1 -0.8,-0.2 -4.8,-0.2 -4.8,-0.2 0,0 6.6,-2.7 4.6,-2.7 -2.1,0 -5.6,-0.6 -4.1,-0.8 1.4,-0.2 4.4,-1.5 4.4,-1.5 l -5.2,-0.4 z"
   id="path115" />
			<path
   class="st8"
   d="m 254.7,211 c -0.8,0.3 -5.3,2.8 -5.3,2.8 0,0 5.3,0.3 3.6,1.1 -1.7,0.8 -2.5,1.9 -2.5,1.9 0,0 5.3,0.6 3.6,1.1 -1.7,0.6 -2.2,1.7 -2.2,1.7 0,0 5.3,-1.9 3.3,0.6 -1.9,2.5 -1.7,1.1 -1.9,2.5 -0.3,1.4 1.5,0.3 1.9,2.2 0.6,2.5 1.1,3.9 1.1,3.9 0,0 4.7,-1.1 4.1,0 -0.6,1.1 5.5,-1.4 2.8,1.1 -2.8,2.5 0,2.2 0,2.2 l 4.7,-1.1 1.1,-1.9 c 0,0 0.8,-1.4 -3,-1.4 -3.9,0 1.7,-3 0,-3.6 -1.7,-0.6 0.8,-1.7 0,-2.2 -0.8,-0.6 -1.9,-2.5 -1.9,-2.5 -2.2,-1.9 0.1,-3.7 -1.1,-3.9 -5,-0.8 -2.2,-0.8 -5,-0.8 -2.8,0 2.5,1.4 0,0 -2.5,-1.5 -3.3,-3.7 -3.3,-3.7 z"
   id="path117" />
			<path
   class="st5"
   d="m 340.6,191.3 c 0,0 7.5,-0.6 5.8,-8.7 -1,0.4 -1,0.4 -1,0.4 0,0 0.4,5.8 -4.4,5.8 0,1.3 -0.4,2.5 -0.4,2.5 z"
   id="path119" />
			<g
   id="g131">
				<path
   class="st4"
   d="m 216.9,290.8 -3.5,1 -2.1,-3 10.8,-3 2.2,3 -3.5,1 9.8,13.6 -3.8,1.1 z"
   id="path121" />
				<path
   class="st4"
   d="m 241.1,290.1 c 4.5,6.3 3.7,9.5 0,10.6 -4.5,1.2 -9.1,-2.3 -12.4,-6.8 -3.3,-4.5 -4,-9 0.4,-10.3 4.7,-1.4 9.2,2.7 12,6.5 z m -8.4,2.7 c 2.7,3.8 4.9,5.5 6.5,5 1.6,-0.4 0.4,-3.1 -2,-6.5 -2.1,-2.9 -4.5,-5.4 -6.2,-4.9 -1.6,0.4 -0.9,2.8 1.7,6.4 z"
   id="path123" />
				<path
   class="st4"
   d="m 237.9,281.6 c 0.8,-0.5 2.1,-1 3.6,-1.4 2.5,-0.7 4.5,-0.7 6.5,0 2.6,0.8 5.1,2.8 7.4,6 2.4,3.4 3.1,6 2.3,7.8 -0.5,1.4 -2.1,2.5 -4.8,3.3 -1.2,0.3 -2.5,0.6 -3.3,0.7 z m 13.7,12.8 c 0.2,0 0.5,-0.1 0.7,-0.1 1.8,-0.5 2.3,-2.5 -1,-7.1 -2.4,-3.4 -5,-5.2 -7.3,-4.5 -0.3,0.1 -0.5,0.1 -0.7,0.3 z"
   id="path125" />
				<path
   class="st4"
   d="m 263.9,289.5 1.9,4 -3.7,1 -7.7,-17.8 4.6,-1.3 15.8,15.6 -3.7,1 -3.6,-3.6 z m 1.3,-3.4 -3.1,-3.3 c -0.9,-1 -2.4,-2.5 -3.4,-3.6 h -0.1 c 0.6,1.2 1.5,3 2,4 l 1.8,3.7 z"
   id="path127" />
				<path
   class="st4"
   d="m 265.4,274.5 c -0.2,-0.2 -0.3,-0.4 -0.5,-0.7 l -3,0.8 5.8,4.5 c -0.8,-1.4 -1.4,-2.8 -1.8,-4.2 -0.2,-0.1 -0.3,-0.3 -0.5,-0.4 z"
   id="path129" />
			</g>
			<g
   id="g153">
				<path
   class="st4"
   d="m 234.6,316.6 -6.1,-8.1 1.6,-0.5 3.8,2.7 c 0.7,0.5 1.9,1.4 2.7,2.1 v 0 c -0.7,-0.8 -1.9,-2.2 -3,-3.7 l -1.4,-1.8 1.5,-0.5 6.1,8.1 -1.6,0.5 -3.7,-2.6 c -0.8,-0.6 -2,-1.5 -2.7,-2.1 v 0 c 0.7,0.8 1.7,2 2.9,3.7 l 1.4,1.8 z"
   id="path133" />
				<path
   class="st4"
   d="m 243.3,308.5 c 2.3,3 2.1,4.7 0.4,5.2 -2,0.6 -4.2,-1 -5.9,-3.3 -1.7,-2.2 -2.2,-4.4 -0.2,-5.1 2.1,-0.6 4.3,1.4 5.7,3.2 z m -3.7,1.4 c 1.4,1.8 2.5,2.7 3.2,2.4 0.7,-0.2 0.1,-1.5 -1.2,-3.2 -1.1,-1.4 -2.3,-2.6 -3,-2.4 -0.7,0.3 -0.3,1.5 1,3.2 z"
   id="path135" />
				<path
   class="st4"
   d="m 243.4,305.5 -1.6,0.5 -1.1,-1.5 4.8,-1.6 1.1,1.5 -1.6,0.5 5,6.6 -1.7,0.6 z"
   id="path137" />
				<path
   class="st4"
   d="m 248.2,302.1 6.1,8.1 -1.7,0.6 -6.1,-8.1 z"
   id="path139" />
				<path
   class="st4"
   d="m 260,308.2 c -0.2,0.2 -0.6,0.4 -1.2,0.6 -2.2,0.7 -4.6,-0.6 -6.3,-2.9 -2.3,-3.1 -1.4,-4.8 0.3,-5.4 0.6,-0.2 1.1,-0.2 1.3,-0.2 l 0.7,1.4 c -0.3,0 -0.5,0 -0.9,0.1 -1,0.3 -1.3,1.4 0.3,3.4 1.5,1.9 2.8,2.4 3.9,2.1 0.3,-0.1 0.6,-0.3 0.7,-0.4 z"
   id="path141" />
				<path
   class="st4"
   d="m 262,303.2 -2,0.7 1.7,2.2 2.3,-0.7 1,1.4 -4,1.3 -6.1,-8.1 3.8,-1.2 1,1.4 -2.1,0.7 1.4,1.9 2,-0.7 z"
   id="path143" />
				<path
   class="st4"
   d="m 264.7,304.8 c 0.5,0.1 1.2,0 1.7,-0.2 0.8,-0.3 0.9,-0.8 0.5,-1.3 -0.4,-0.6 -1.1,-0.8 -2.1,-1 -1.7,-0.3 -2.8,-1 -3.4,-1.7 -1,-1.3 -0.9,-2.7 1,-3.3 0.6,-0.2 1.2,-0.2 1.6,-0.2 l 0.8,1.4 c -0.4,-0.1 -0.8,-0.1 -1.3,0.1 -0.7,0.2 -0.8,0.8 -0.4,1.2 0.4,0.5 0.8,0.6 2.2,0.9 1.6,0.3 2.7,0.9 3.3,1.8 1.1,1.5 0.7,2.8 -1.1,3.4 -0.7,0.2 -1.5,0.3 -1.9,0.2 z"
   id="path145" />
				<path
   class="st4"
   d="m 274.4,299.2 -2,0.7 1.7,2.2 2.3,-0.7 1,1.4 -4,1.3 -6.1,-8.1 3.8,-1.2 1,1.4 -2.1,0.7 1.4,1.9 2,-0.7 z"
   id="path147" />
				<path
   class="st4"
   d="m 279.7,301.9 -8.1,-7.5 1.9,-0.6 3.3,3.3 c 0.8,0.8 1.7,1.8 2.6,2.7 v 0 c -0.6,-1 -1.2,-2 -1.7,-3 l -2,-3.7 1.9,-0.6 4.1,8.7 z"
   id="path149" />
				<path
   class="st4"
   d="m 286.9,297.9 -1.9,0.6 -1.6,-2.2 0.9,-0.3 c -0.5,-0.4 -0.9,-0.8 -1.4,-1.2 l -0.5,0.2 -1.2,-1.6 c -0.6,-0.5 -1.2,-1 -1.7,-1.5 l -1.3,0.4 6,8.2 4,-1.2 -0.5,-0.7 c -0.2,-0.3 -0.5,-0.5 -0.8,-0.7 z"
   id="path151" />
			</g>
			<line
   class="st9"
   x1="318.70001"
   y1="309.20001"
   x2="324.39999"
   y2="308"
   id="line155" />
		</g>

</svg>
